<?xml version="1.0" encoding="utf-8"?>
<!-- Generator: Adobe Illustrator 24.0.2, SVG Export Plug-In . SVG Version: 6.00 Build 0)  -->
<svg version="1.1" id="Layer_1" xmlns="http://www.w3.org/2000/svg" xmlns:xlink="http://www.w3.org/1999/xlink" x="0px" y="0px"
	 viewBox="0 0 43.2 35.9" style="enable-background:new 0 0 43.2 35.9;" xml:space="preserve">
<style type="text/css">
	.st0{fill:none;stroke:#EDAB31;stroke-width:3.2;}
	.st1{fill:none;stroke:#EDAB31;stroke-width:3.2;stroke-linecap:round;}
</style>
<title></title>
<desc></desc>
<g id="Overcast">
	<g transform="translate(3.000000, 6.000000)">
		<g id="Group-3" transform="translate(2.000000, 0.000000)">
			<path id="Oval-3" class="st0" d="M11.3,6.8c0-3.5-2.9-6.4-6.4-6.4s-6.4,2.9-6.4,6.4c0,1.2,0.3,2.3,0.9,3.3"/>
			<path id="Oval-3_1_" class="st1" d="M27.5,1.3c-1.9-3.4-5.6-5.7-9.7-5.7c-3.9,0-7.4,2-9.4,5.1"/>
		</g>
		<g id="Group-2" transform="translate(0.000000, 3.000000)">
			<path id="Oval" class="st0" d="M13.6,5.5c-1.4-0.7-2.9-1-4.5-1C3.3,4.4-1.4,9.1-1.4,14.9S3.3,25.3,9.1,25.3c2.9,0,5.4-1.1,7.3-3"
				/>
			<path id="Oval_1_" class="st1" d="M14.1,19.5c2.4,3.5,6.5,5.9,11.1,5.9c7.4,0,13.4-6,13.4-13.4s-6-13.4-13.4-13.4
				C18.7-1.5,13.4,3,12,9"/>
		</g>
	</g>
</g>
</svg>
