<?xml version="1.0" encoding="utf-8"?>
<!-- Generator: Adobe Illustrator 24.0.2, SVG Export Plug-In . SVG Version: 6.00 Build 0)  -->
<svg version="1.1" id="Layer_1" xmlns="http://www.w3.org/2000/svg" xmlns:xlink="http://www.w3.org/1999/xlink" x="0px" y="0px"
	 viewBox="0 0 44.5 46.4" style="enable-background:new 0 0 44.5 46.4;" xml:space="preserve">
<style type="text/css">
	.st0{fill:none;stroke:#EDAB31;stroke-width:3.2;}
	.st1{fill:none;stroke:#EDAB31;stroke-width:3.2;stroke-linecap:round;}
</style>
<title></title>
<desc></desc>
<g id="Light-Rain">
	<g transform="translate(3.000000, 2.000000)">
		<g id="Group-2">
			<path id="Oval" class="st0" d="M14,6.8c-1.4-0.7-3-1-4.6-1c-6,0-10.8,4.8-10.8,10.8S3.4,27.3,9.4,27.3c2.9,0,5.6-1.2,7.6-3.1"/>
			<path id="Oval_1_" class="st1" d="M14.6,21.3c2.5,3.7,6.7,6.1,11.5,6.1c7.7,0,13.9-6.2,13.9-13.9S33.7-0.4,26-0.4
				c-6.6,0-12.2,4.7-13.5,10.9"/>
		</g>
		<g id="Group-5" transform="translate(17.000000, 20.000000)">
			<path id="Path-5" class="st1" d="M10.4,11.6v3.2"/>
			<path id="Path-6" class="st1" d="M10.4,19.6v3.2"/>
		</g>
		<g id="Group-3" transform="translate(12.000000, 20.000000)">
			<path id="Path-5_1_" class="st1" d="M7.4,11.6v3.2"/>
			<path id="Path-6_1_" class="st1" d="M7.4,19.6v3.2"/>
		</g>
		<g id="Group-4" transform="translate(7.000000, 20.000000)">
			<path id="Path-5_2_" class="st1" d="M4.4,11.6v3.2"/>
			<path id="Path-6_2_" class="st1" d="M4.4,19.6v3.2"/>
		</g>
	</g>
</g>
</svg>
